<?xml version="1.0" encoding="UTF-8" standalone="no"?>
<svg
   xmlns:dc="http://purl.org/dc/elements/1.1/"
   xmlns:cc="http://creativecommons.org/ns#"
   xmlns:rdf="http://www.w3.org/1999/02/22-rdf-syntax-ns#"
   xmlns:svg="http://www.w3.org/2000/svg"
   xmlns="http://www.w3.org/2000/svg"
   xmlns:sodipodi="http://sodipodi.sourceforge.net/DTD/sodipodi-0.dtd"
   xmlns:inkscape="http://www.inkscape.org/namespaces/inkscape"
   id="cloud"
   version="1.1"
   x="0px"
   y="0px"
   width="250"
   height="170"
   viewBox="0 0 250 170"
   inkscape:version="0.48.4 r9939"
   sodipodi:docname="cloud.svg">
  <metadata
     id="metadata9">
    <rdf:RDF>
      <cc:Work
         rdf:about="">
        <dc:format>image/svg+xml</dc:format>
        <dc:type
           rdf:resource="http://purl.org/dc/dcmitype/StillImage" />
      </cc:Work>
    </rdf:RDF>
  </metadata>
  <defs
     id="defs7" />
  <sodipodi:namedview
     pagecolor="#ffffff"
     bordercolor="#666666"
     borderopacity="1"
     objecttolerance="10"
     gridtolerance="10"
     guidetolerance="10"
     inkscape:pageopacity="0"
     inkscape:pageshadow="2"
     inkscape:window-width="1366"
     inkscape:window-height="706"
     id="namedview5"
     showgrid="false"
     inkscape:zoom="1.1238095"
     inkscape:cx="125"
     inkscape:cy="105"
     inkscape:window-x="-8"
     inkscape:window-y="-8"
     inkscape:window-maximized="1"
     inkscape:current-layer="cloud" />
  <path
     d="m 144.47438,11.30409 c -14.66532,0 -27.38807,6.284917 -34.50504,15.566672 -6.60293,-3.708534 -14.606953,-5.950819 -23.300804,-5.950803 -22.37454,0 -40.553321,14.45075 -40.553321,32.236793 0,1.307012 0.30516,2.556278 0.495763,3.822695 -19.323246,2.450914 -34.158001,15.637825 -34.158001,31.685076 0,15.900217 14.549718,29.059957 33.612663,31.685057 -0.386271,1.78529 -0.694073,3.60543 -0.694073,5.47791 0,17.78607 18.178771,32.19738 40.553321,32.19738 10.959144,0 20.861282,-3.47989 28.159282,-9.10354 7.43734,7.03249 18.43257,11.62569 30.88595,11.62569 17.76834,0 32.70544,-9.17703 38.17367,-21.83269 4.3768,1.28657 9.04338,2.12805 13.9805,2.12805 22.37454,0 40.50372,-14.4507 40.50373,-32.23677 0,-8.94383 -4.58685,-17.01764 -11.99742,-22.857396 3.74123,-4.879199 6.04829,-10.541847 6.04829,-16.670121 0,-17.786054 -18.17877,-32.197394 -40.55333,-32.197378 -2.35532,0 -4.64546,0.20533 -6.89109,0.512324 C 180.62146,22.543799 164.20478,11.30409 144.47438,11.30409 z"
     style="fill-opacity:0;stroke:#000000;stroke-width:8.90595436"
     id="path3"
     inkscape:connector-curvature="0" />
</svg>
